<svg xmlns="http://www.w3.org/2000/svg" viewBox="0 0 277 162.3" enable-background="new 0 0 277 162.3"><style type="text/css">.st0{fill:#FFFFFF;}</style><g id="PNN_x2C__tail_x2C__legs"><path class="st0" d="M67.4 16.7c-2.3 0-4.4 1.1-5.7 3.1l-.4.6-.7-.1-.9-.1c-1.8 0-3.4.8-4.4 2.1-1.5 2.1-1.1 5.1 1 7.3l.5.5-.2.6c-.9 3.1.3 6.3 2.8 7.3.6.3 1.2.4 1.9.4 2.4 0 4.7-1.7 5.8-4.2.4-.9.6-1.9.6-2.8v-1l.9-.2c3.2-.6 5.6-3.4 5.6-6.7 0-3.7-3.1-6.8-6.8-6.8z"/><path d="M67.4 14.4c-2.8 0-5.5 1.3-7.2 3.5-2.8-.2-5.3 1-6.7 3.1-2 2.8-1.7 6.7.8 9.7-.9 4 .9 8 4.3 9.5.9.4 1.8.6 2.8.6 3.3 0 6.5-2.3 7.9-5.6.4-.9.6-1.8.7-2.8 3.9-1.1 6.6-4.7 6.6-8.8-.1-5.1-4.2-9.2-9.2-9.2zm.3 17c0 1-.2 1.9-.6 2.8-1.1 2.5-3.4 4.2-5.8 4.2-.6 0-1.3-.1-1.9-.4-2.5-1.1-3.7-4.2-2.8-7.3l.2-.6-.5-.5c-2.1-2.2-2.5-5.2-1-7.3.9-1.3 2.5-2.1 4.4-2.1.3 0 .6 0 .9.1l.7.1.4-.6c1.3-1.9 3.4-3.1 5.7-3.1 3.8 0 6.8 3.1 6.8 6.8 0 3.3-2.3 6.1-5.6 6.7l-.9.2v1zM96.3 85.5l-1.9 36.7s-.1 2.5.4 3.5 1.3 1.3 1.9 1.2c.7-.2 2.7-2.5 2.7-2.5s.9 2.2 1.1 2.5c.2.3 1.3 1.4 2.3 1.2 1.7-.4 2.4-3.3 3.1-6.9.4-1.8 1.5-37.4 1.5-37.4l-11.1 1.7zM111.8 87l.4 15.8.4 11.6c.2 1.8.8 6.5 2.4 6.9 1.2.3 1.6-.8 1.8-1.1.3-.3.8-1.5.8-1.5-.1.3.7 1.6 1 1.9 1.9 1.7 2.9-1.2 3.1-2.6.9-5.6-.3-11.7-.8-17.3-.1-.6-.1-1.2-.2-1.7l-1.2-14.3-7.7 2.3zM147.3 87.4c-.2 2.4-.4 4.8-.6 7.3l-.6 7.4-.5 6.9c-.2 2.8-.5 5.6-.6 8.4-.1 2.2-.2 4.4 0 6.6.1 1.2.1 3.3.8 4.3.4.6 1 1.1 1.7.9.3-.1 2.7-1.8 2.6-2 .6 1.1 1.2 3.4 2.9 3.3.9-.1 1.8-2.7 1.9-3.4.2-1.2.5-2.4.6-3.6.4-3.6.6-7.2.9-10.8.2-1.8.3-3.5.3-5.3 0-3.9.1-7.8.2-11.7l.1-5.7c0-.6.4-2.6 0-3.1v-.2c-2.8.2-5.6.5-8.5.7-.4-.1-.8 0-1.2 0zM160.9 85.5l.3 10.5c0 4.3 1 8.6 1.7 12.8.3 1.7.4 3.5.5 5.2.1 1.5 0 3.1.6 4.5.2.6.8 1.3 1.4 1.6 1 .4 2.4-.9 3.2-1.5-.1 0 .6 1.2.7 1.3 1.1 1.1 1.8.2 2.2-.8 1.7-4.2.3-8.7-.4-13-.1-.5-.2-1-.2-1.5l-3.5-20.5-6.5 1.4z"/><path class="st0" d="M3 131.3c1.4-.2 3.3-.4 5.7-.4 2.9 0 5.1.7 6.4 1.9 1.3 1.1 2 2.7 2 4.8 0 2.1-.6 3.7-1.8 4.9-1.6 1.7-4.1 2.5-7 2.5-.9 0-1.7 0-2.4-.2v9.2h-2.9v-22.7zm3 11c.6.2 1.5.2 2.4.2 3.6 0 5.7-1.7 5.7-4.9 0-3-2.1-4.5-5.4-4.5-1.3 0-2.3.1-2.8.2v9zM20.2 142.6c0-1.9 0-3.6-.1-5.1h2.6l.1 3.2h.1c.7-2.2 2.5-3.6 4.5-3.6.3 0 .6 0 .8.1v2.8c-.3-.1-.6-.1-1-.1-2.1 0-3.6 1.6-4 3.8-.1.4-.1.9-.1 1.4v8.7h-2.9v-11.2zM45.8 145.5c0 6.1-4.2 8.7-8.2 8.7-4.4 0-7.9-3.3-7.9-8.4 0-5.5 3.6-8.7 8.1-8.7 4.8 0 8 3.4 8 8.4zm-13.1.2c0 3.6 2.1 6.3 5 6.3 2.8 0 5-2.7 5-6.4 0-2.8-1.4-6.3-4.9-6.3-3.5 0-5.1 3.3-5.1 6.4zM45.8 158.6c1.4-.1 2.5-.5 3.3-1.3.8-.9 1.1-2.2 1.1-6.2v-13.7h3v14.9c0 3.2-.5 5.3-2 6.7-1.3 1.3-3.5 1.9-5.1 1.9l-.3-2.3zm7.7-25.8c0 1-.7 1.8-1.9 1.8-1.1 0-1.8-.8-1.8-1.8 0-1.1.8-1.9 1.9-1.9 1.1.1 1.8.9 1.8 1.9zM60.3 146.2c.1 4 2.6 5.7 5.6 5.7 2.1 0 3.4-.4 4.5-.8l.5 2.1c-1.1.5-2.8 1-5.5 1-5.1 0-8.1-3.3-8.1-8.3s2.9-8.8 7.7-8.8c5.4 0 6.8 4.7 6.8 7.7 0 .6-.1 1.1-.1 1.4h-11.4zm8.7-2.1c0-1.9-.8-4.8-4.1-4.8-3 0-4.3 2.8-4.6 4.8h8.7zM87.8 153.2c-.8.4-2.5.9-4.7.9-5 0-8.2-3.4-8.2-8.4 0-5.1 3.5-8.7 8.8-8.7 1.8 0 3.3.4 4.1.8l-.7 2.3c-.7-.4-1.8-.8-3.5-.8-3.8 0-5.8 2.8-5.8 6.2 0 3.8 2.4 6.1 5.7 6.1 1.7 0 2.8-.4 3.7-.8l.6 2.4zM95.2 132.7v4.7h4.3v2.3h-4.3v8.8c0 2 .6 3.2 2.2 3.2.8 0 1.4-.1 1.7-.2l.1 2.2c-.6.2-1.5.4-2.6.4-1.4 0-2.5-.4-3.2-1.3-.8-.9-1.2-2.3-1.2-4.3v-9h-2.5v-2.3h2.5v-3.9l3-.6zM110.1 153.9v-22.9h3.2l7.3 11.6c1.7 2.7 3 5.1 4.1 7.4h.1c-.3-3.1-.3-5.8-.3-9.4v-9.6h2.8v22.9h-3l-7.3-11.6c-1.6-2.5-3.1-5.2-4.3-7.6h-.1c.2 2.9.2 5.6.2 9.4v9.8h-2.7zM135.7 132.8c0 1-.7 1.8-1.9 1.8-1.1 0-1.8-.8-1.8-1.8 0-1.1.8-1.9 1.9-1.9 1.1.1 1.8.9 1.8 1.9zm-3.4 21.1v-16.4h3v16.4h-3zM155.1 137.4c-.1 1.2-.1 2.5-.1 4.5v9.5c0 3.8-.7 6.1-2.3 7.5-1.6 1.5-3.9 2-6 2-2 0-4.1-.5-5.5-1.4l.7-2.3c1.1.7 2.8 1.3 4.8 1.3 3.1 0 5.3-1.6 5.3-5.7v-1.8c-.9 1.5-2.7 2.7-5.2 2.7-4.1 0-7-3.5-7-8 0-5.6 3.6-8.7 7.4-8.7 2.8 0 4.4 1.5 5.1 2.8h.1l.1-2.5h2.6zm-3.1 6.5c0-.5 0-.9-.2-1.4-.5-1.7-2-3.2-4.2-3.2-2.8 0-4.9 2.4-4.9 6.2 0 3.2 1.6 5.9 4.8 5.9 1.8 0 3.5-1.2 4.1-3.1.2-.5.2-1.1.2-1.6v-2.8zM160.5 129.8h3v10.2h.1c.5-.8 1.2-1.6 2.1-2.1.9-.5 1.9-.8 3.1-.8 2.2 0 5.7 1.4 5.7 7v9.8h-3v-9.4c0-2.6-1-4.9-3.8-4.9-1.9 0-3.5 1.4-4 3-.2.4-.2.8-.2 1.4v9.9h-3v-24.1zM183.3 132.7v4.7h4.3v2.3h-4.3v8.8c0 2 .6 3.2 2.2 3.2.8 0 1.4-.1 1.7-.2l.1 2.2c-.6.2-1.5.4-2.6.4-1.4 0-2.5-.4-3.2-1.3-.8-.9-1.2-2.3-1.2-4.3v-9h-2.5v-2.3h2.5v-3.9l3-.6zM198.3 153.9v-22.9h3.2l7.3 11.6c1.7 2.7 3 5.1 4.1 7.4h.1c-.3-3.1-.3-5.8-.3-9.4v-9.6h2.8v22.9h-3l-7.3-11.6c-1.6-2.5-3.1-5.2-4.3-7.6h-.1c.2 2.9.2 5.6.2 9.4v9.8h-2.7zM223.9 132.8c0 1-.7 1.8-1.9 1.8-1.1 0-1.8-.8-1.8-1.8 0-1.1.8-1.9 1.9-1.9 1 .1 1.8.9 1.8 1.9zm-3.4 21.1v-16.4h3v16.4h-3zM243.3 137.4c-.1 1.2-.1 2.5-.1 4.5v9.5c0 3.8-.7 6.1-2.3 7.5-1.6 1.5-3.9 2-6 2-2 0-4.1-.5-5.5-1.4l.7-2.3c1.1.7 2.8 1.3 4.8 1.3 3.1 0 5.3-1.6 5.3-5.7v-1.8h-.1c-.9 1.5-2.7 2.7-5.2 2.7-4.1 0-7-3.5-7-8 0-5.6 3.6-8.7 7.4-8.7 2.8 0 4.4 1.5 5.1 2.8h.1l.1-2.5h2.7zm-3.1 6.5c0-.5 0-.9-.2-1.4-.5-1.7-2-3.2-4.2-3.2-2.8 0-4.9 2.4-4.9 6.2 0 3.2 1.6 5.9 4.8 5.9 1.8 0 3.5-1.2 4.1-3.1.2-.5.2-1.1.2-1.6v-2.8zM248.7 129.8h3v10.2h.1c.5-.8 1.2-1.6 2.1-2.1.9-.5 1.9-.8 3.1-.8 2.2 0 5.7 1.4 5.7 7v9.8h-3v-9.4c0-2.6-1-4.9-3.8-4.9-1.9 0-3.5 1.4-4 3-.2.4-.2.8-.2 1.4v9.9h-3v-24.1zM271.4 132.7v4.7h4.3v2.3h-4.3v8.8c0 2 .6 3.2 2.2 3.2.8 0 1.4-.1 1.7-.2l.1 2.2c-.6.2-1.5.4-2.6.4-1.4 0-2.5-.4-3.2-1.3-.8-.9-1.2-2.3-1.2-4.3v-9h-2.4v-2.3h2.5v-3.9l2.9-.6z"/></g><g id="Body"><path class="st0" d="M195.8 47.2c9.6-6.5 0-20.5-9.7-18.9-.1 0-1.9.2-1.5-.4 2.4-4.1 3.7-10.3-.6-13.8-5.5-4.4-12.8-3.4-18.6-.1-.3.2-3.3 1.3-3.3.4-.9-9.4-11.3-11.3-18.7-7.2-.5.3-3 1.4-3.3.4-2.7-7.2-13.1-8.2-17.1-1.4-.4.7-3 1.6-3.7 1-7.8-7.6-22-6.3-26.1 4.5-.3.9-2.7 1.3-3.4 1.1-3.4-1.1-7.7-1.3-10.2 1.9-.4.4-1.3 2.6-1.9 3.1-.8.8-2.7 1.1-3.4 1.5-1.9.9-3.8 2-5.3 3.5-4.9 4.8-6.6 11-3.2 17.2 0 .2-.1.3-.2.4-5.5 4.9-2.5 11.3 4 12.9.3.1.5.4.2.6-7.2 5.6-2 13.7 6 13.3.2 0 1.3-.1 1 .4-5.6 12 7.8 19.9 18.4 17.1.4-.1 1.6-.4 1.9-.1 8.2 9.3 23.5 9.3 32.2.6.6-.6 3-1.5 3.6-.6 5.3 7.9 16.7 9.1 24 2.9.6-.5 2.7-1.4 3.5-.8 3.6 3.1 10.3 6.2 14.6 2.1 3-2.9 3.8-6.3 3.2-10.4-.2-1.1 3-1.5 3.7-1.2 9.2 4.6 14.5-4.2 10.8-11.9-.3-.5 1.5-1 1.7-1.1 7.9-2.4 5.8-11.9 1.5-16.3l-.3-.3c-.4 0 0-.3.2-.4z"/><path d="M201.7 44.6c.9-1 1.3-2.4 1.6-3.6.8-3.1-.5-6.2-2.1-8.8-2.8-4.2-7.8-5.8-12.6-5.5 3.6-6.6 1.9-13.5-5.5-16.2-5.5-2.1-12.1-.5-17.5 1.9-1.9-10.3-14.1-9.8-22.3-6.5-3.9-8.2-16.4-7-22.3-1.2-9.2-6.8-25.4-4.2-30.9 6.2-5.9-1-12.4 1.1-15.7 6.4-.9 1.4-2.8 1.7-4.2 2.5-2.1 1.2-4 2.6-5.8 4.3-2.8 2.8-4.3 6.5-4.5 10.4-.1 1.4 2 6.3 1 7.2-1.3 1.1-2.4 3.2-2.4 4.9 0 1.8.3 3.5 1.6 4.9.5.6 5 3.6 4.8 3.8-2.9 2.2-3.9 7-1.4 9.9 2.5 2.9 5.7 3.8 9.2 3.8-6 13.6 10 19.5 21 17.5 9.1 9.9 26.2 8.8 36.5.9 6.7 8 19.4 7.3 27.7 1.9 8.9 6.2 23.9 2.7 24.1-9.1 9.1 1.7 19.2-4.7 14.4-15.1 7.5-3.4 9.2-11.5 2.9-18.1 0-.2 1.6-1.5 2.4-2.4zm-61.8-36.8c.3.9 2.9-.2 3.3-.4 7.4-4.1 17.7-2.2 18.7 7.2.1.9 3-.3 3.3-.4 5.8-3.3 13.2-4.3 18.6.1 4.3 3.5 3.1 9.6.6 13.8-.4.6 1.4.4 1.5.4 9.7-1.7 19.4 12.4 9.7 18.9-.2.1-.6.4-.3.7l.3.3c4.3 4.4 6.4 13.9-1.5 16.3-.2.1-2 .6-1.7 1.1 3.7 7.7-1.6 16.4-10.8 11.9-.6-.3-3.8.1-3.7 1.2.6 4-.3 7.5-3.2 10.4-4.2 4.1-11 1-14.6-2.1-.8-.7-2.9.3-3.5.8-7.2 6.1-18.7 5-24-2.9-.6-.9-3.1.1-3.6.6-8.7 8.6-24 8.6-32.2-.6-.3-.4-1.6 0-1.9.1-10.6 2.8-24-5.2-18.4-17.1.2-.5-.8-.4-1-.4-8.1.3-13.2-7.8-6-13.3.3-.2.2-.5-.2-.6-6.5-1.6-9.6-8-4-12.9.1-.1.2-.2.2-.4-3.3-6.2-1.7-12.4 3.2-17.2 1.5-1.5 3.4-2.5 5.3-3.5.7-.3 2.6-.7 3.4-1.5.5-.5 1.5-2.7 1.9-3.1 2.6-3.2 6.8-3 10.2-1.9.8.3 3.1-.2 3.4-1.1 4.1-10.8 18.3-12.1 26.1-4.5.7.7 3.2-.3 3.7-1 4.1-7.1 14.5-6.1 17.2 1.1z"/></g><path d="M218.2 37.2c-.7-3.8-4.8-4.4-6.1-4.5-.3 0-.6-.1-1-.1-4.6 0-19.2 2.8-21.3 7.1-.3.7-.5 1.7.4 2.9 1.3 1.7 4.6 2.5 9.9 2.5 5.9 0 12.4-1 13.8-1.3 3-.6 4.9-3.5 4.3-6.6z" id="R_Ear"/><g id="L_Ear_x2C__eyes_x2C__nose_x2C__head"><path class="st0" d="M180.6 36.4c-5.3 1.7-9.6 6.6-10.2 12.2-.7 7 3 11.7 7.4 16.5 8.2 8.8 17.3 18.3 28 23.8 4.6 2.4 11.6 4.5 12.3-2.9.5-5.6-1.9-11.3-4.3-16.2-4.9-10.1-11.4-19.6-18.5-28.3-3.4-3.9-9.1-6.8-14.7-5.1z"/><path d="M172 50.8c-5.5 0-17.5 7.3-19.6 9.9-.9 1-3.5 4.2-1.5 7.5 1 1.7 2.9 2.8 4.9 2.8.9 0 1.9-.3 2.7-.7.2-.1 17.3-10.6 16.9-16.7-.2-1.8-1.4-2.8-3.4-2.8z"/><ellipse transform="matrix(.834 -.551 .551 .834 -12.374 130.034)" cx="210.1" cy="85.6" rx="1.3" ry="2.3"/><ellipse transform="matrix(.834 -.551 .551 .834 -10.796 131.287)" cx="213" cy="83.6" rx="1.3" ry="2.3"/><path d="M184.6 64.5c-1.2 0-2.3-.2-3.4-.7-.4-.2-.6-.6-.4-1 .2-.4.6-.6 1-.4 1.4.6 2.8.7 4.2.5 1.7-.3 2.9-1 4.3-1.9.4-.2.8-.2 1.1.2.2.4.2.8-.2 1.1-1.3.9-2.8 1.8-4.9 2.2h-1.7zM182 67.7c-.2 0-.3-.1-.5-.2-.3-.3-.4-.7-.1-1.1 0 0 1.1-1.5 1.3-2.8.1-.4.5-.7.9-.6.4.1.7.5.6.9-.3 1.6-1.6 3.3-1.6 3.4-.1.3-.3.4-.6.4zM186.2 68.4c-.5 0-.8-.4-.8-.8 0 0 .2-2.1.1-3.6 0-.4.3-.8.8-.8.4 0 .8.3.8.8 0 1.6-.1 3.7-.1 3.7-.1.4-.4.7-.8.7zM190.9 67c-.2 0-.4-.1-.6-.2-.1-.1-1.3-1.4-2.4-2.9-.3-.3-.2-.8.2-1.1.3-.3.8-.2 1.1.2 1.1 1.5 2.3 2.7 2.3 2.8.3.3.3.8 0 1.1-.3 0-.5.1-.6.1zM199.1 55c-.4 0-.8-.3-.8-.8 0-.4.3-.8.8-.8 1.8 0 3.5-.3 3.6-.3.4-.1.8.2.9.7.1.4-.2.8-.7.9-.2 0-1.9.3-3.8.3zM201.9 58.9c-.1 0-.2 0-.3-.1-.1 0-2-1-3.8-2.2-.4-.2-.5-.7-.2-1.1.2-.4.7-.5 1.1-.2 1.8 1.2 3.6 2.1 3.6 2.1.4.2.5.6.4 1-.2.3-.5.5-.8.5zM193.8 59.2c-.3 0-.6-.2-.7-.5-.2-.4 0-.8.4-1 .1 0 5.2-2.1 4.7-5.3-.1-.4.2-.8.7-.9.4-.1.8.2.9.7.7 4.5-5.4 6.9-5.6 7h-.4zM197.3 61.7c-.4 0-.7-.3-.8-.6 0 0-.4-2-.9-3.5-.1-.4.1-.8.5-1 .4-.1.8.1 1 .5.5 1.5.9 3.5.9 3.6.1.4-.2.8-.6.9.1.1 0 .1-.1.1zM220.5 78.4c-3.5-13.8-13.4-26.9-22.2-37.8-13.3-14.9-39.3 1.9-28.1 19.8 3.3 5.2 8.6 9.8 13 14 6.1 5.9 12.6 11.6 20 15.7 4.3 2.4 9.2 3.9 13.9 1.7 5.1-2.3 4.5-8.9 3.4-13.4zm-2.3 7.7c-.7 7.4-7.7 5.3-12.3 2.9-10.7-5.6-19.9-15.1-28-23.8-4.5-4.8-8.1-9.5-7.4-16.5.6-5.6 4.8-10.6 10.2-12.2 5.5-1.7 11.2 1.2 14.8 5.2 7.1 8.7 13.5 18.2 18.5 28.3 2.3 4.8 4.8 10.6 4.2 16.1z"/></g></svg>